<?xml version="1.0" encoding="UTF-8" standalone="no"?>
<!-- Created with Inkscape (http://www.inkscape.org/) -->

<svg
   version="1.1"
   id="svg2"
   xml:space="preserve"
   width="294.80399"
   height="113.38547"
   viewBox="0 0 294.80399 113.38547"
   sodipodi:docname="Logo_OEB_vectoriel.svg"
   inkscape:version="1.1 (c68e22c387, 2021-05-23)"
   xmlns:inkscape="http://www.inkscape.org/namespaces/inkscape"
   xmlns:sodipodi="http://sodipodi.sourceforge.net/DTD/sodipodi-0.dtd"
   xmlns="http://www.w3.org/2000/svg"
   xmlns:svg="http://www.w3.org/2000/svg"><defs
     id="defs6"><clipPath
       clipPathUnits="userSpaceOnUse"
       id="clipPath16"><path
         d="M 0,85.039 H 221.103 V 0 H 0 Z"
         id="path14" /></clipPath></defs><sodipodi:namedview
     id="namedview4"
     pagecolor="#ffffff"
     bordercolor="#666666"
     borderopacity="1.0"
     inkscape:pageshadow="2"
     inkscape:pageopacity="0.0"
     inkscape:pagecheckerboard="0"
     showgrid="false"
     inkscape:zoom="4.5860981"
     inkscape:cx="147.51102"
     inkscape:cy="91.472095"
     inkscape:window-width="1920"
     inkscape:window-height="1001"
     inkscape:window-x="-9"
     inkscape:window-y="-9"
     inkscape:window-maximized="1"
     inkscape:current-layer="g8" /><g
     id="g8"
     inkscape:groupmode="layer"
     inkscape:label="Logo_OEB_vectoriel"
     transform="matrix(1.3333333,0,0,-1.3333333,0,113.38547)"><g
       id="g10"><g
         id="g12"
         clip-path="url(#clipPath16)"><g
           id="g18"
           transform="translate(71.4951,67.981)"><path
             d="m 0,0 c -3.396,7.672 -18.305,7.369 -34.708,-0.053 -16.395,-7.423 -27.425,-19.492 -24.029,-27.155 1.311,-2.96 4.347,-4.722 8.508,-5.353 -3.683,0.74 -6.336,2.472 -7.497,5.186 -3.098,7.255 7.171,19.052 22.826,25.9 13.533,5.914 29.443,6.517 32.519,-0.676 C -0.16,-7.34 -4.811,-14.824 -13.345,-21.173 -3.202,-14.221 2.579,-5.839 0,0"
             style="fill:#3c3e3f;fill-opacity:1;fill-rule:nonzero;stroke:none"
             id="path20" /></g><g
           id="g22"
           transform="translate(78.5864,70.9297)"><path
             d="M 0,0 C 3.677,-8.318 -6.4,-20.883 -22.443,-30.197 -7.973,-20.84 1.105,-7.757 -2.3,0.198 -3.869,3.875 -7.789,6.097 -12.991,7.039 -6.589,6.735 -1.97,4.439 0,0"
             style="fill:#3c3e3f;fill-opacity:1;fill-rule:nonzero;stroke:none"
             id="path24" /></g><g
           id="g26"
           transform="translate(49.6748,41.3076)"><path
             d="m 0,0 -4.127,0.48 -0.65,0.769 2.078,0.495 -0.093,0.245 -0.482,0.309 H -4.18 L -4.581,2.023 -5.12,2.298 -5.204,1.522 -6.628,1.801 -6.939,1.283 l -0.258,0.926 -1.479,1.238 -2.072,1.396 -1.71,0.621 -0.85,-0.05 -1.054,1.065 -0.366,0.577 -0.175,-0.164 V 6.508 l -0.478,-0.166 -1.081,0.198 -0.486,-0.716 h -1.846 l 0.168,0.465 c 0,0 -0.428,1.974 -1.166,2.488 l -0.68,0.033 -1.705,0.762 0.654,0.277 2.957,0.307 0.934,-0.333 0.117,1.036 -1.304,1.047 -0.486,0.051 -0.909,-0.599 v 0.569 l 0.169,0.465 -0.484,0.115 0.057,0.275 h 0.512 l 0.028,0.599 0.675,-0.467 0.691,-0.027 0.621,-0.137 0.204,0.305 -0.115,0.381 -0.171,-0.189 -0.711,0.189 0.112,0.762 -0.822,-0.052 -0.54,-0.273 -0.369,-0.134 -0.767,0.134 -0.285,-0.275 -0.572,-0.025 -0.051,0.599 -0.06,0.659 0.286,0.769 v 0.551 l 0.682,0.765 1.136,0.275 1.474,0.598 1.201,0.493 0.397,-0.656 0.625,0.215 0.394,0.279 1.307,0.025 0.539,0.416 0.77,-0.793 0.714,-0.093 0.198,0.665 1.533,-0.52 0.77,-0.194 0.021,0.624 0.29,0.748 0.654,0.649 1.196,-0.052 1.023,0.36 0.653,-0.387 1.162,0.55 0.145,-0.879 1.334,-0.989 0.201,-0.763 0.876,-1.586 0.633,-0.797 0.452,-0.572 1.509,1.177 0.966,0.684 0.908,0.406 0.509,-0.186 -0.423,-0.437 0.199,-0.166 0.37,0.141 0.398,-0.416 0.226,-0.299 0.45,0.273 0.177,0.495 1.077,0.023 0.683,0.525 0.542,0.164 0.482,0.104 0.087,-0.407 -0.339,-0.574 0.542,-0.496 1.81,-0.028 4.645,-1.488 0.187,-4.424 C 10.03,5.099 0,0 0,0"
             style="fill:#3c3e3f;fill-opacity:1;fill-rule:nonzero;stroke:none"
             id="path28" /></g><g
           id="g30"
           transform="translate(105.0757,38.1523)"><path
             d="m 0,0 c 2.031,0 3.575,-1.575 3.575,-3.605 0,-2.082 -1.544,-3.708 -3.575,-3.708 -2.03,0 -3.575,1.626 -3.575,3.708 C -3.575,-1.575 -2.03,0 0,0 m 0,-6.898 c 1.788,0 3.121,1.433 3.121,3.293 0,1.808 -1.333,3.19 -3.121,3.19 -1.787,0 -3.121,-1.382 -3.121,-3.19 0,-1.86 1.333,-3.293 3.121,-3.293"
             style="fill:#3c3e3f;fill-opacity:1;fill-rule:nonzero;stroke:none"
             id="path32" /></g><g
           id="g34"
           transform="translate(110.0049,37.8594)"><path
             d="m 0,0 c 0,0.111 0.061,0.171 0.171,0.171 h 2.202 c 1.03,0 1.788,-0.686 1.788,-1.767 0,-0.768 -0.373,-1.282 -0.919,-1.546 v -0.019 c 0.696,-0.192 1.201,-0.879 1.201,-1.787 0,-1.183 -0.838,-1.949 -1.968,-1.949 H 0.171 C 0.061,-6.897 0,-6.838 0,-6.727 Z m 2.364,-2.979 c 0.787,0 1.343,0.545 1.343,1.383 0,0.827 -0.525,1.365 -1.354,1.365 H 0.435 v -2.748 z m 0.07,-3.516 c 0.949,0 1.555,0.586 1.555,1.547 0,0.959 -0.657,1.565 -1.565,1.565 H 0.435 v -3.111 z"
             style="fill:#3c3e3f;fill-opacity:1;fill-rule:nonzero;stroke:none"
             id="path36" /></g><g
           id="g38"
           transform="translate(115.3887,31.8398)"><path
             d="m 0,0 0.069,0.081 c 0.073,0.081 0.154,0.091 0.244,0.01 0.252,-0.223 0.879,-0.667 1.727,-0.667 0.929,0 1.606,0.546 1.606,1.393 0,1.98 -3.616,1.485 -3.616,3.677 0,1.111 0.94,1.819 2.13,1.819 0.85,0 1.436,-0.365 1.667,-0.556 C 3.908,5.696 3.93,5.615 3.869,5.524 L 3.807,5.433 C 3.746,5.342 3.656,5.333 3.565,5.404 3.332,5.575 2.827,5.889 2.142,5.889 1.273,5.889 0.484,5.384 0.484,4.524 0.484,2.646 4.101,3.161 4.101,0.868 4.101,-0.191 3.322,-1 2.03,-1 0.989,-1 0.282,-0.475 0.01,-0.243 -0.071,-0.162 -0.071,-0.081 0,0"
             style="fill:#3c3e3f;fill-opacity:1;fill-rule:nonzero;stroke:none"
             id="path40" /></g><g
           id="g42"
           transform="translate(120.8018,37.8594)"><path
             d="M 0,0 C 0,0.111 0.061,0.171 0.172,0.171 H 3.696 C 3.807,0.171 3.869,0.111 3.869,0 v -0.061 c 0,-0.111 -0.062,-0.17 -0.173,-0.17 h -3.26 v -2.9 H 3.08 c 0.111,0 0.173,-0.059 0.173,-0.171 v -0.062 c 0,-0.112 -0.062,-0.171 -0.173,-0.171 H 0.436 v -2.96 h 3.452 c 0.111,0 0.174,-0.06 0.174,-0.171 v -0.061 c 0,-0.111 -0.063,-0.17 -0.174,-0.17 H 0.172 C 0.061,-6.897 0,-6.838 0,-6.727 Z"
             style="fill:#3c3e3f;fill-opacity:1;fill-rule:nonzero;stroke:none"
             id="path44" /></g><g
           id="g46"
           transform="translate(126.1045,37.8594)"><path
             d="M 0,0 C 0,0.111 0.061,0.171 0.172,0.171 H 2.07 c 0.658,0 0.991,-0.069 1.274,-0.213 0.586,-0.292 0.979,-0.887 0.979,-1.694 0,-1.012 -0.586,-1.77 -1.415,-1.951 v -0.02 c 0,0 0.072,-0.081 0.162,-0.252 l 1.475,-2.737 c 0.06,-0.12 0.01,-0.201 -0.122,-0.201 h -0.14 c -0.101,0 -0.162,0.039 -0.203,0.12 L 2.464,-3.768 H 0.436 v -2.959 c 0,-0.111 -0.063,-0.17 -0.174,-0.17 H 0.172 C 0.061,-6.897 0,-6.838 0,-6.727 Z m 2.353,-3.364 c 0.93,0 1.516,0.667 1.516,1.628 0,0.625 -0.314,1.13 -0.829,1.361 -0.201,0.093 -0.424,0.144 -0.99,0.144 H 0.436 v -3.133 z"
             style="fill:#3c3e3f;fill-opacity:1;fill-rule:nonzero;stroke:none"
             id="path48" /></g><g
           id="g50"
           transform="translate(131.0537,37.8291)"><path
             d="m 0,0 c -0.041,0.12 0.01,0.201 0.142,0.201 h 0.111 c 0.09,0 0.162,-0.04 0.192,-0.141 l 2.079,-5.576 c 0.122,-0.331 0.274,-0.847 0.274,-0.847 h 0.02 c 0,0 0.151,0.516 0.273,0.847 L 5.182,0.06 c 0.03,0.101 0.1,0.141 0.19,0.141 H 5.483 C 5.615,0.201 5.666,0.12 5.627,0 L 3.101,-6.727 C 3.07,-6.826 2.999,-6.868 2.908,-6.868 H 2.717 c -0.091,0 -0.162,0.042 -0.193,0.141 z"
             style="fill:#3c3e3f;fill-opacity:1;fill-rule:nonzero;stroke:none"
             id="path52" /></g><g
           id="g54"
           transform="translate(139.0332,37.8896)"><path
             d="M 0,0 C 0.03,0.102 0.102,0.142 0.191,0.142 H 0.373 C 0.465,0.142 0.534,0.102 0.564,0 L 3.091,-6.727 C 3.13,-6.847 3.079,-6.928 2.947,-6.928 H 2.838 c -0.092,0 -0.162,0.039 -0.192,0.132 l -0.869,2.311 h -3 l -0.859,-2.302 c -0.029,-0.102 -0.1,-0.141 -0.189,-0.141 h -0.112 c -0.132,0 -0.182,0.081 -0.143,0.201 z M 1.625,-4.08 0.556,-1.211 C 0.444,-0.91 0.292,-0.363 0.292,-0.363 h -0.02 c 0,0 -0.152,-0.547 -0.263,-0.848 L -1.07,-4.08 Z"
             style="fill:#3c3e3f;fill-opacity:1;fill-rule:nonzero;stroke:none"
             id="path56" /></g><g
           id="g58"
           transform="translate(144.123,37.627)"><path
             d="m 0,0 h -2.463 c -0.111,0 -0.172,0.06 -0.172,0.171 v 0.06 c 0,0.112 0.061,0.171 0.172,0.171 H 2.899 C 3.01,0.402 3.07,0.343 3.07,0.231 V 0.171 C 3.07,0.06 3.01,0 2.899,0 H 0.436 v -6.495 c 0,-0.11 -0.063,-0.171 -0.174,-0.171 H 0.172 C 0.061,-6.666 0,-6.605 0,-6.495 Z"
             style="fill:#3c3e3f;fill-opacity:1;fill-rule:nonzero;stroke:none"
             id="path60" /></g><g
           id="g62"
           transform="translate(150.6777,38.1514)"><path
             d="M 0,0 C 2.031,0 3.575,-1.574 3.575,-3.604 3.575,-5.686 2.03,-7.312 0,-7.312 c -2.03,0 -3.575,1.626 -3.575,3.708 0,2.03 1.545,3.605 3.575,3.604 m 0,-6.897 c 1.788,0 3.121,1.433 3.121,3.293 0,1.807 -1.333,3.19 -3.121,3.19 -1.787,0 -3.121,-1.383 -3.121,-3.19 0,-1.86 1.334,-3.293 3.121,-3.293"
             style="fill:#3c3e3f;fill-opacity:1;fill-rule:nonzero;stroke:none"
             id="path64" /></g><g
           id="g66"
           transform="translate(155.6074,37.8594)"><path
             d="M 0,0 C 0,0.111 0.061,0.171 0.171,0.171 H 0.264 C 0.373,0.171 0.435,0.111 0.435,0 v -6.727 c 0,-0.111 -0.062,-0.17 -0.171,-0.17 H 0.171 C 0.061,-6.897 0,-6.838 0,-6.727 Z"
             style="fill:#3c3e3f;fill-opacity:1;fill-rule:nonzero;stroke:none"
             id="path68" /></g><g
           id="g70"
           transform="translate(157.8994,37.8594)"><path
             d="M 0,0 C 0,0.111 0.061,0.171 0.172,0.171 H 2.07 c 0.658,0 0.992,-0.069 1.274,-0.213 0.586,-0.292 0.979,-0.887 0.979,-1.695 0,-1.011 -0.586,-1.769 -1.415,-1.95 v -0.02 c 0,0 0.072,-0.081 0.162,-0.253 l 1.475,-2.736 c 0.06,-0.121 0.01,-0.201 -0.12,-0.201 H 4.283 c -0.101,0 -0.161,0.039 -0.203,0.12 L 2.464,-3.768 H 0.436 v -2.959 c 0,-0.111 -0.063,-0.17 -0.172,-0.17 H 0.172 C 0.061,-6.897 0,-6.838 0,-6.727 Z m 2.354,-3.364 c 0.929,0 1.515,0.667 1.515,1.627 0,0.626 -0.314,1.131 -0.829,1.362 -0.201,0.092 -0.424,0.143 -0.99,0.143 H 0.436 v -3.132 z"
             style="fill:#3c3e3f;fill-opacity:1;fill-rule:nonzero;stroke:none"
             id="path72" /></g><g
           id="g74"
           transform="translate(163.708,37.8594)"><path
             d="M 0,0 C 0,0.11 0.06,0.171 0.171,0.171 H 3.697 C 3.807,0.171 3.868,0.11 3.868,0 v -0.061 c 0,-0.111 -0.061,-0.171 -0.171,-0.171 H 0.435 v -2.899 h 2.644 c 0.111,0 0.174,-0.06 0.174,-0.171 v -0.062 c 0,-0.112 -0.063,-0.172 -0.174,-0.172 H 0.435 v -2.959 h 3.453 c 0.11,0 0.171,-0.06 0.171,-0.171 v -0.061 c 0,-0.111 -0.061,-0.17 -0.171,-0.17 H 0.171 C 0.06,-6.897 0,-6.838 0,-6.727 Z"
             style="fill:#3c3e3f;fill-opacity:1;fill-rule:nonzero;stroke:none"
             id="path76" /></g><g
           id="g78"
           transform="translate(102.0059,27.0859)"><path
             d="m 0,0 c 0,0.11 0.06,0.171 0.171,0.171 h 2.052 c 2.1,0 3.524,-1.292 3.524,-3.535 0,-2.251 -1.424,-3.534 -3.524,-3.534 H 0.171 C 0.06,-6.898 0,-6.838 0,-6.727 Z m 2.151,-6.495 c 1.878,0 3.142,1.101 3.142,3.131 0,2.02 -1.264,3.132 -3.142,3.132 H 0.435 v -6.263 z"
             style="fill:#3c3e3f;fill-opacity:1;fill-rule:nonzero;stroke:none"
             id="path80" /></g><g
           id="g82"
           transform="translate(109.1362,27.0859)"><path
             d="M 0,0 C 0,0.11 0.061,0.171 0.171,0.171 H 3.696 C 3.807,0.171 3.869,0.11 3.869,0 v -0.061 c 0,-0.111 -0.062,-0.171 -0.173,-0.171 H 0.435 V -3.131 H 3.08 c 0.111,0 0.173,-0.06 0.173,-0.172 v -0.061 c 0,-0.11 -0.062,-0.172 -0.173,-0.172 H 0.435 v -2.959 h 3.453 c 0.111,0 0.173,-0.061 0.173,-0.171 v -0.061 c 0,-0.111 -0.062,-0.171 -0.173,-0.171 H 0.171 C 0.061,-6.898 0,-6.838 0,-6.727 Z"
             style="fill:#3c3e3f;fill-opacity:1;fill-rule:nonzero;stroke:none"
             id="path84" /></g><g
           id="g86"
           transform="translate(116.7012,27.0859)"><path
             d="M 0,0 C 0,0.11 0.061,0.171 0.172,0.171 H 0.263 C 0.373,0.171 0.436,0.11 0.436,0 v -6.495 h 3.2 c 0.111,0 0.171,-0.061 0.171,-0.171 v -0.061 c 0,-0.111 -0.06,-0.171 -0.171,-0.171 H 0.172 C 0.061,-6.898 0,-6.838 0,-6.727 Z"
             style="fill:#3c3e3f;fill-opacity:1;fill-rule:nonzero;stroke:none"
             id="path88" /></g><g
           id="g90"
           transform="translate(120.0947,25.9951)"><path
             d="m 0,0 v 1.181 c 0,0.111 0.061,0.173 0.172,0.173 h 0.091 c 0.11,0 0.173,-0.062 0.173,-0.173 V 0 c 0,-0.111 -0.063,-0.172 -0.173,-0.172 H 0.172 C 0.061,-0.172 0,-0.111 0,0"
             style="fill:#3c3e3f;fill-opacity:1;fill-rule:nonzero;stroke:none"
             id="path92" /></g><g
           id="g94"
           transform="translate(121.9941,27.0859)"><path
             d="M 0,0 C 0,0.11 0.061,0.171 0.172,0.171 H 3.697 C 3.807,0.171 3.869,0.11 3.869,0 v -0.061 c 0,-0.111 -0.062,-0.171 -0.172,-0.171 H 0.436 V -3.131 H 3.08 c 0.11,0 0.173,-0.06 0.173,-0.172 v -0.061 c 0,-0.11 -0.063,-0.172 -0.173,-0.172 H 0.436 v -2.959 h 3.452 c 0.111,0 0.171,-0.061 0.171,-0.171 v -0.061 c 0,-0.111 -0.06,-0.171 -0.171,-0.171 H 0.171 C 0.061,-6.898 0,-6.838 0,-6.727 Z"
             style="fill:#3c3e3f;fill-opacity:1;fill-rule:nonzero;stroke:none"
             id="path96" /></g><g
           id="g98"
           transform="translate(127.2969,27.0859)"><path
             d="m 0,0 c 0,0.11 0.06,0.171 0.171,0.171 h 0.101 c 0.091,0 0.151,-0.03 0.211,-0.111 l 3.951,-5.432 c 0.231,-0.324 0.576,-0.89 0.576,-0.89 h 0.018 c 0,0 -0.05,0.535 -0.05,0.89 v 5.371 c 0,0.111 0.062,0.172 0.173,0.172 h 0.09 c 0.112,0 0.172,-0.061 0.172,-0.172 v -6.726 c 0,-0.111 -0.06,-0.171 -0.172,-0.171 H 5.14 c -0.091,0 -0.151,0.03 -0.211,0.111 l -3.95,5.434 c -0.232,0.322 -0.575,0.887 -0.575,0.887 h -0.02 c 0,0 0.051,-0.535 0.051,-0.887 v -5.374 c 0,-0.111 -0.063,-0.171 -0.173,-0.171 H 0.171 c -0.111,0 -0.172,0.06 -0.172,0.171 z"
             style="fill:#3c3e3f;fill-opacity:1;fill-rule:nonzero;stroke:none"
             id="path100" /></g><g
           id="g102"
           transform="translate(133.71,27.0547)"><path
             d="m 0,0 c -0.04,0.121 0.01,0.202 0.142,0.202 h 0.11 c 0.091,0 0.162,-0.04 0.192,-0.141 l 2.081,-5.576 c 0.121,-0.332 0.272,-0.847 0.272,-0.847 h 0.02 c 0,0 0.152,0.515 0.274,0.847 l 2.091,5.576 c 0.03,0.101 0.099,0.141 0.19,0.141 H 5.483 C 5.615,0.202 5.666,0.121 5.626,0 L 3.101,-6.726 C 3.07,-6.825 3,-6.867 2.908,-6.867 H 2.716 c -0.09,0 -0.16,0.042 -0.191,0.141 z"
             style="fill:#3c3e3f;fill-opacity:1;fill-rule:nonzero;stroke:none"
             id="path104" /></g><g
           id="g106"
           transform="translate(140.3359,27.085)"><path
             d="M 0,0 C 0,0.111 0.061,0.172 0.171,0.172 H 0.262 C 0.373,0.172 0.435,0.111 0.435,0 v -6.726 c 0,-0.111 -0.062,-0.171 -0.173,-0.171 H 0.171 C 0.06,-6.897 0,-6.837 0,-6.726 Z"
             style="fill:#3c3e3f;fill-opacity:1;fill-rule:nonzero;stroke:none"
             id="path108" /></g><g
           id="g110"
           transform="translate(142.6279,27.085)"><path
             d="M 0,0 C 0,0.111 0.061,0.172 0.172,0.172 H 2.07 c 0.658,0 0.99,-0.069 1.274,-0.213 0.586,-0.292 0.979,-0.887 0.979,-1.695 0,-1.012 -0.586,-1.767 -1.415,-1.95 v -0.02 c 0,0 0.072,-0.081 0.162,-0.253 L 4.546,-6.695 C 4.605,-6.816 4.555,-6.897 4.423,-6.897 H 4.282 c -0.1,0 -0.16,0.04 -0.202,0.121 L 2.464,-3.767 H 0.436 v -2.959 c 0,-0.111 -0.063,-0.171 -0.173,-0.171 H 0.172 C 0.061,-6.897 0,-6.837 0,-6.726 Z m 2.353,-3.363 c 0.928,0 1.516,0.666 1.516,1.627 0,0.625 -0.314,1.13 -0.829,1.364 -0.201,0.09 -0.424,0.141 -0.99,0.141 H 0.436 v -3.132 z"
             style="fill:#3c3e3f;fill-opacity:1;fill-rule:nonzero;stroke:none"
             id="path112" /></g><g
           id="g114"
           transform="translate(151.5059,27.3779)"><path
             d="M 0,0 C 2.03,0 3.575,-1.574 3.575,-3.605 3.575,-5.687 2.03,-7.312 0,-7.312 c -2.03,0 -3.575,1.625 -3.575,3.708 C -3.575,-1.574 -2.03,0 0,0 m 0,-6.897 c 1.788,0 3.121,1.433 3.121,3.292 0,1.808 -1.333,3.191 -3.121,3.191 -1.787,0 -3.121,-1.383 -3.121,-3.19 0,-1.86 1.334,-3.293 3.121,-3.293"
             style="fill:#3c3e3f;fill-opacity:1;fill-rule:nonzero;stroke:none"
             id="path116" /></g><g
           id="g118"
           transform="translate(156.4355,27.085)"><path
             d="m 0,0 c 0,0.111 0.06,0.172 0.171,0.172 h 0.101 c 0.091,0 0.152,-0.03 0.211,-0.111 l 3.951,-5.432 c 0.231,-0.324 0.574,-0.89 0.574,-0.89 h 0.02 c 0,0 -0.05,0.535 -0.05,0.889 V 0 c 0,0.111 0.06,0.172 0.171,0.172 H 5.241 C 5.353,0.172 5.413,0.111 5.413,0 v -6.726 c 0,-0.111 -0.06,-0.171 -0.172,-0.171 H 5.14 c -0.09,0 -0.151,0.03 -0.211,0.111 l -3.95,5.434 C 0.747,-1.03 0.402,-0.465 0.402,-0.465 H 0.384 c 0,0 0.051,-0.535 0.051,-0.887 v -5.374 c 0,-0.111 -0.062,-0.171 -0.173,-0.171 H 0.171 C 0.06,-6.897 0,-6.837 0,-6.726 Z"
             style="fill:#3c3e3f;fill-opacity:1;fill-rule:nonzero;stroke:none"
             id="path120" /></g><g
           id="g122"
           transform="translate(163.707,27.085)"><path
             d="m 0,0 c 0,0.111 0.061,0.172 0.172,0.172 h 0.101 c 0.09,0 0.151,-0.03 0.211,-0.111 l 3.951,-5.433 c 0.231,-0.323 0.574,-0.889 0.574,-0.889 h 0.02 c 0,0 -0.05,0.535 -0.05,0.889 V 0 c 0,0.111 0.06,0.172 0.17,0.172 H 5.242 C 5.354,0.172 5.413,0.111 5.413,0 v -6.726 c 0,-0.111 -0.059,-0.171 -0.171,-0.171 H 5.141 c -0.091,0 -0.151,0.03 -0.213,0.111 L 0.979,-1.352 C 0.748,-1.03 0.403,-0.465 0.403,-0.465 H 0.385 c 0,0 0.051,-0.535 0.051,-0.887 v -5.374 c 0,-0.111 -0.063,-0.171 -0.174,-0.171 H 0.172 C 0.061,-6.897 0,-6.837 0,-6.726 Z"
             style="fill:#3c3e3f;fill-opacity:1;fill-rule:nonzero;stroke:none"
             id="path124" /></g><g
           id="g126"
           transform="translate(170.9795,27.085)"><path
             d="M 0,0 C 0,0.111 0.061,0.172 0.171,0.172 H 3.695 C 3.807,0.172 3.869,0.111 3.869,0 v -0.06 c 0,-0.111 -0.062,-0.171 -0.174,-0.171 H 0.435 V -3.13 h 2.644 c 0.111,0 0.174,-0.06 0.174,-0.172 v -0.061 c 0,-0.11 -0.063,-0.172 -0.174,-0.172 H 0.435 v -2.959 h 3.453 c 0.111,0 0.171,-0.061 0.171,-0.172 v -0.06 c 0,-0.111 -0.06,-0.171 -0.171,-0.171 H 0.171 C 0.061,-6.897 0,-6.837 0,-6.726 Z"
             style="fill:#3c3e3f;fill-opacity:1;fill-rule:nonzero;stroke:none"
             id="path128" /></g><g
           id="g130"
           transform="translate(176.5645,27.0957)"><path
             d="m 0,0 c 0.01,0.102 0.071,0.162 0.172,0.162 h 0.122 c 0.1,0 0.16,-0.042 0.201,-0.132 L 2.494,-4.281 C 2.656,-4.626 2.839,-5.08 2.839,-5.08 h 0.018 c 0,0 0.183,0.454 0.345,0.799 L 5.2,0.03 c 0.042,0.09 0.103,0.132 0.204,0.132 h 0.12 C 5.626,0.162 5.687,0.102 5.696,0 l 0.546,-6.727 c 0,-0.12 -0.051,-0.18 -0.174,-0.18 H 5.979 c -0.1,0 -0.163,0.06 -0.172,0.16 L 5.383,-1.515 C 5.354,-1.172 5.354,-0.576 5.354,-0.576 H 5.332 c 0,0 -0.201,-0.596 -0.363,-0.939 L 3.131,-5.414 C 3.091,-5.504 3.03,-5.546 2.929,-5.546 H 2.767 c -0.1,0 -0.163,0.042 -0.202,0.132 l -1.829,3.899 c -0.15,0.333 -0.373,0.959 -0.373,0.959 h -0.02 c 0,0 0,-0.616 -0.03,-0.959 l -0.424,-5.232 c -0.009,-0.1 -0.07,-0.16 -0.171,-0.16 h -0.091 c -0.122,0 -0.173,0.06 -0.173,0.18 z"
             style="fill:#3c3e3f;fill-opacity:1;fill-rule:nonzero;stroke:none"
             id="path132" /></g><g
           id="g134"
           transform="translate(184.4023,27.085)"><path
             d="M 0,0 C 0,0.111 0.061,0.172 0.171,0.172 H 3.695 C 3.807,0.172 3.869,0.111 3.869,0 v -0.06 c 0,-0.111 -0.062,-0.171 -0.174,-0.171 H 0.435 V -3.13 h 2.644 c 0.111,0 0.174,-0.06 0.174,-0.172 v -0.062 c 0,-0.109 -0.063,-0.171 -0.174,-0.171 H 0.435 v -2.959 h 3.453 c 0.111,0 0.173,-0.061 0.173,-0.172 v -0.06 c 0,-0.111 -0.062,-0.171 -0.173,-0.171 H 0.171 C 0.061,-6.897 0,-6.837 0,-6.726 Z"
             style="fill:#3c3e3f;fill-opacity:1;fill-rule:nonzero;stroke:none"
             id="path136" /></g><g
           id="g138"
           transform="translate(189.7051,27.085)"><path
             d="m 0,0 c 0,0.111 0.06,0.172 0.171,0.172 h 0.101 c 0.091,0 0.152,-0.03 0.211,-0.111 l 3.951,-5.433 c 0.231,-0.323 0.574,-0.889 0.574,-0.889 h 0.02 c 0,0 -0.05,0.535 -0.05,0.889 V 0 c 0,0.111 0.06,0.172 0.171,0.172 H 5.241 C 5.353,0.172 5.413,0.111 5.413,0 v -6.726 c 0,-0.111 -0.06,-0.171 -0.172,-0.171 H 5.14 c -0.09,0 -0.151,0.03 -0.211,0.111 l -3.95,5.433 C 0.747,-1.03 0.402,-0.465 0.402,-0.465 H 0.384 c 0,0 0.051,-0.535 0.051,-0.888 v -5.373 c 0,-0.111 -0.062,-0.171 -0.173,-0.171 H 0.171 C 0.06,-6.897 0,-6.837 0,-6.726 Z"
             style="fill:#3c3e3f;fill-opacity:1;fill-rule:nonzero;stroke:none"
             id="path140" /></g><g
           id="g142"
           transform="translate(198.6133,26.8525)"><path
             d="m 0,0 h -2.464 c -0.111,0 -0.173,0.061 -0.173,0.172 v 0.059 c 0,0.112 0.062,0.172 0.173,0.172 H 2.898 C 3.01,0.403 3.07,0.343 3.07,0.231 V 0.172 C 3.07,0.061 3.01,0 2.898,0 H 0.435 v -6.494 c 0,-0.111 -0.062,-0.172 -0.173,-0.172 H 0.171 C 0.06,-6.666 0,-6.605 0,-6.494 Z"
             style="fill:#3c3e3f;fill-opacity:1;fill-rule:nonzero;stroke:none"
             id="path144" /></g><g
           id="g146"
           transform="translate(102.0059,16.3115)"><path
             d="M 0,0 C 0,0.111 0.06,0.172 0.171,0.172 H 3.697 C 3.807,0.172 3.869,0.111 3.869,0 v -0.06 c 0,-0.111 -0.062,-0.171 -0.172,-0.171 H 0.435 V -3.13 H 3.08 c 0.11,0 0.173,-0.06 0.173,-0.172 V -3.364 C 3.253,-3.473 3.19,-3.535 3.08,-3.535 H 0.435 v -2.959 h 3.453 c 0.111,0 0.171,-0.061 0.171,-0.172 v -0.06 c 0,-0.111 -0.06,-0.171 -0.171,-0.171 H 0.171 C 0.06,-6.897 0,-6.837 0,-6.726 Z"
             style="fill:#3c3e3f;fill-opacity:1;fill-rule:nonzero;stroke:none"
             id="path148" /></g><g
           id="g150"
           transform="translate(107.3086,16.3115)"><path
             d="m 0,0 c 0,0.111 0.06,0.172 0.171,0.172 h 0.102 c 0.09,0 0.151,-0.03 0.211,-0.111 l 3.95,-5.433 c 0.232,-0.323 0.574,-0.889 0.574,-0.889 h 0.021 c 0,0 -0.05,0.535 -0.05,0.889 V 0 c 0,0.111 0.059,0.172 0.17,0.172 H 5.242 C 5.353,0.172 5.413,0.111 5.413,0 v -6.726 c 0,-0.111 -0.06,-0.171 -0.171,-0.171 H 5.14 c -0.09,0 -0.151,0.03 -0.212,0.111 L 0.979,-1.353 C 0.748,-1.03 0.403,-0.465 0.403,-0.465 H 0.384 c 0,0 0.051,-0.535 0.051,-0.888 v -5.373 c 0,-0.111 -0.062,-0.171 -0.173,-0.171 H 0.171 C 0.06,-6.897 0,-6.837 0,-6.726 Z"
             style="fill:#3c3e3f;fill-opacity:1;fill-rule:nonzero;stroke:none"
             id="path152" /></g><g
           id="g154"
           transform="translate(116.8428,16.3115)"><path
             d="m 0,0 c 0,0.111 0.061,0.172 0.172,0.172 h 2.201 c 1.03,0 1.788,-0.686 1.788,-1.768 0,-0.767 -0.373,-1.282 -0.92,-1.546 V -3.16 c 0.697,-0.193 1.202,-0.88 1.202,-1.788 0,-1.183 -0.838,-1.949 -1.968,-1.949 H 0.171 C 0.061,-6.897 0,-6.837 0,-6.726 Z m 2.364,-2.979 c 0.787,0 1.343,0.545 1.343,1.383 0,0.827 -0.525,1.365 -1.354,1.365 H 0.435 v -2.748 z m 0.07,-3.515 c 0.949,0 1.555,0.586 1.555,1.546 0,0.959 -0.657,1.565 -1.565,1.565 H 0.435 v -3.111 z"
             style="fill:#3c3e3f;fill-opacity:1;fill-rule:nonzero;stroke:none"
             id="path156" /></g><g
           id="g158"
           transform="translate(122.6904,16.3115)"><path
             d="M 0,0 C 0,0.111 0.061,0.172 0.172,0.172 H 2.07 c 0.658,0 0.991,-0.07 1.274,-0.213 0.586,-0.292 0.979,-0.888 0.979,-1.695 0,-1.012 -0.586,-1.769 -1.415,-1.95 v -0.021 c 0,0 0.071,-0.081 0.162,-0.252 l 1.475,-2.737 c 0.06,-0.12 0.01,-0.201 -0.122,-0.201 h -0.14 c -0.101,0 -0.162,0.04 -0.203,0.121 L 2.464,-3.767 H 0.436 v -2.959 c 0,-0.111 -0.063,-0.171 -0.174,-0.171 H 0.172 C 0.061,-6.897 0,-6.837 0,-6.726 Z m 2.353,-3.364 c 0.93,0 1.516,0.667 1.516,1.628 0,0.625 -0.314,1.13 -0.829,1.361 -0.201,0.093 -0.424,0.144 -0.99,0.144 H 0.436 v -3.133 z"
             style="fill:#3c3e3f;fill-opacity:1;fill-rule:nonzero;stroke:none"
             id="path160" /></g><g
           id="g162"
           transform="translate(128.499,16.3115)"><path
             d="M 0,0 C 0,0.111 0.06,0.172 0.171,0.172 H 3.695 C 3.807,0.172 3.868,0.111 3.868,0 v -0.061 c 0,-0.11 -0.061,-0.17 -0.173,-0.17 H 0.435 V -3.13 h 2.644 c 0.111,0 0.174,-0.06 0.174,-0.172 v -0.062 c 0,-0.11 -0.063,-0.171 -0.174,-0.171 H 0.435 v -2.959 h 3.452 c 0.111,0 0.172,-0.061 0.172,-0.172 v -0.06 c 0,-0.111 -0.061,-0.171 -0.172,-0.171 H 0.171 C 0.06,-6.897 0,-6.837 0,-6.726 Z"
             style="fill:#3c3e3f;fill-opacity:1;fill-rule:nonzero;stroke:none"
             id="path164" /></g><g
           id="g166"
           transform="translate(135.4375,16.0791)"><path
             d="m 0,0 h -2.464 c -0.111,0 -0.173,0.061 -0.173,0.172 v 0.06 c 0,0.111 0.062,0.171 0.173,0.171 H 2.898 C 3.01,0.403 3.07,0.343 3.07,0.232 V 0.172 C 3.07,0.061 3.01,0 2.898,0 H 0.435 v -6.494 c 0,-0.111 -0.062,-0.172 -0.173,-0.172 H 0.171 C 0.06,-6.666 0,-6.605 0,-6.494 Z"
             style="fill:#3c3e3f;fill-opacity:1;fill-rule:nonzero;stroke:none"
             id="path168" /></g><g
           id="g170"
           transform="translate(140.3965,16.3418)"><path
             d="M 0,0 C 0.03,0.103 0.102,0.142 0.192,0.142 H 0.373 C 0.465,0.142 0.535,0.103 0.565,0 L 3.091,-6.726 C 3.131,-6.847 3.08,-6.928 2.947,-6.928 h -0.11 c -0.091,0 -0.16,0.04 -0.191,0.132 l -0.868,2.312 h -3.001 l -0.858,-2.302 c -0.03,-0.102 -0.101,-0.142 -0.19,-0.142 h -0.112 c -0.132,0 -0.182,0.081 -0.143,0.202 z m 1.626,-4.079 -1.07,2.868 C 0.444,-0.909 0.292,-0.363 0.292,-0.363 H 0.273 c 0,0 -0.153,-0.546 -0.263,-0.848 l -1.08,-2.868 z"
             style="fill:#3c3e3f;fill-opacity:1;fill-rule:nonzero;stroke:none"
             id="path172" /></g><g
           id="g174"
           transform="translate(147.4561,16.6045)"><path
             d="M 0,0 C 1.232,0 2.031,-0.475 2.334,-0.686 2.425,-0.758 2.425,-0.848 2.353,-0.929 L 2.302,-0.989 C 2.242,-1.081 2.151,-1.091 2.062,-1.03 1.768,-0.829 1.03,-0.414 0,-0.414 c -1.777,0 -3.07,-1.413 -3.07,-3.242 0,-1.838 1.262,-3.241 3.01,-3.241 1.514,0 2.424,1.16 2.424,1.16 v 1.363 H 1.273 c -0.111,0 -0.172,0.062 -0.172,0.174 v 0.059 c 0,0.112 0.061,0.172 0.172,0.172 h 1.353 c 0.111,0 0.172,-0.06 0.172,-0.172 v -2.878 c 0,-0.111 -0.061,-0.172 -0.172,-0.172 h -0.09 c -0.111,0 -0.172,0.061 -0.172,0.172 v 0.443 c 0,0.153 0.01,0.304 0.01,0.304 H 2.353 c 0,0 -0.848,-1.041 -2.413,-1.041 -1.97,0 -3.463,1.608 -3.463,3.657 C -3.523,-1.616 -2,0 0,0"
             style="fill:#3c3e3f;fill-opacity:1;fill-rule:nonzero;stroke:none"
             id="path176" /></g><g
           id="g178"
           transform="translate(151.6885,16.3115)"><path
             d="m 0,0 c 0,0.111 0.061,0.172 0.171,0.172 h 0.102 c 0.09,0 0.151,-0.03 0.211,-0.111 l 3.95,-5.433 c 0.231,-0.324 0.575,-0.889 0.575,-0.889 h 0.02 c 0,0 -0.05,0.535 -0.05,0.889 V 0 c 0,0.111 0.059,0.172 0.17,0.172 H 5.242 C 5.353,0.172 5.413,0.111 5.413,0 v -6.727 c 0,-0.11 -0.06,-0.17 -0.171,-0.17 H 5.14 c -0.09,0 -0.151,0.03 -0.212,0.111 L 0.979,-1.353 C 0.748,-1.03 0.403,-0.465 0.403,-0.465 H 0.384 c 0,0 0.051,-0.535 0.051,-0.888 v -5.374 c 0,-0.11 -0.062,-0.17 -0.173,-0.17 H 0.171 C 0.061,-6.897 0,-6.837 0,-6.727 Z"
             style="fill:#3c3e3f;fill-opacity:1;fill-rule:nonzero;stroke:none"
             id="path180" /></g><g
           id="g182"
           transform="translate(158.9609,16.3115)"><path
             d="M 0,0 C 0,0.111 0.06,0.172 0.171,0.172 H 3.695 C 3.807,0.172 3.868,0.111 3.868,0 v -0.061 c 0,-0.11 -0.061,-0.17 -0.173,-0.17 h -3.26 v -2.9 h 2.644 c 0.111,0 0.174,-0.059 0.174,-0.171 v -0.062 c 0,-0.11 -0.063,-0.171 -0.174,-0.171 H 0.435 v -2.959 h 3.452 c 0.111,0 0.172,-0.061 0.172,-0.172 v -0.061 c 0,-0.11 -0.061,-0.17 -0.172,-0.17 H 0.171 c -0.111,0 -0.172,0.06 -0.172,0.17 z"
             style="fill:#3c3e3f;fill-opacity:1;fill-rule:nonzero;stroke:none"
             id="path184" /></g><g
           id="g186"
           transform="translate(37.7754,39.0625)"><path
             d="M 0,0 C 8.499,0 15.121,-6.54 15.121,-14.997 15.121,-23.661 8.499,-30.41 0,-30.41 c -8.499,0 -15.08,6.749 -15.08,15.413 C -15.08,-6.54 -8.499,0 0,0 m 0,-26.494 c 5.958,0 10.789,4.999 10.789,11.497 0,6.291 -4.831,11.122 -10.789,11.122 -5.958,0 -10.748,-4.831 -10.748,-11.122 0,-6.498 4.79,-11.497 10.748,-11.497"
             style="fill:#3c3e3f;fill-opacity:1;fill-rule:nonzero;stroke:none"
             id="path188" /></g><g
           id="g190"
           transform="translate(56.0195,34.9795)"><path
             d="m 0,0 h -2.708 v 3.583 h 17.289 c 1.874,0 2.665,-0.792 2.665,-2.668 v -3.706 h -3.79 v 1.874 C 13.456,-0.292 13.123,0 12.539,0 H 4.167 v -9.207 h 10.288 v -3.582 H 4.167 v -8.54 c 0,-0.582 0.333,-0.916 0.915,-0.916 h 8.581 c 0.584,0 0.918,0.334 0.918,0.916 v 1.876 h 3.831 v -3.709 c 0,-1.874 -0.791,-2.665 -2.665,-2.665 H 2.665 C 0.791,-25.827 0,-25.036 0,-23.162 Z"
             style="fill:#3c3e3f;fill-opacity:1;fill-rule:nonzero;stroke:none"
             id="path192" /></g><g
           id="g194"
           transform="translate(77.5127,34.9795)"><path
             d="M 0,0 H -2.707 V 3.583 H 9.874 c 4.956,0 8.54,-2.75 8.54,-7.499 0,-3.208 -1.709,-5.374 -3.667,-6.332 v -0.083 c 3.124,-0.918 4.833,-3.833 4.833,-7.124 0,-5.539 -4.25,-8.372 -9.458,-8.372 H 2.665 C 0.791,-25.827 0,-25.036 0,-23.162 Z m 9.915,-8.79 c 2.583,0 4.25,1.876 4.25,4.458 C 14.165,-1.75 12.581,0 9.831,0 H 4.167 V -8.79 Z M 5.082,-22.245 h 5.25 c 3.124,0 4.957,1.999 4.957,4.999 0,2.999 -1.959,5.041 -4.957,5.041 H 4.167 v -9.124 c 0,-0.582 0.333,-0.916 0.915,-0.916"
             style="fill:#3c3e3f;fill-opacity:1;fill-rule:nonzero;stroke:none"
             id="path196" /></g></g></g></g></svg>
