<?xml version="1.0" encoding="UTF-8" standalone="no"?>
<!-- Created with Inkscape (http://www.inkscape.org/) -->

<svg
   version="1.1"
   id="svg2"
   xml:space="preserve"
   width="1858.6667"
   height="1164"
   viewBox="0 0 1858.6667 1164"
   sodipodi:docname="logo_oeb_simple.svg"
   inkscape:version="1.1 (c68e22c387, 2021-05-23)"
   xmlns:inkscape="http://www.inkscape.org/namespaces/inkscape"
   xmlns:sodipodi="http://sodipodi.sourceforge.net/DTD/sodipodi-0.dtd"
   xmlns="http://www.w3.org/2000/svg"
   xmlns:svg="http://www.w3.org/2000/svg"><defs
     id="defs6"><clipPath
       clipPathUnits="userSpaceOnUse"
       id="clipPath16"><path
         d="M 0,873 H 1394 V 0 H 0 Z"
         id="path14" /></clipPath></defs><sodipodi:namedview
     id="namedview4"
     pagecolor="#ffffff"
     bordercolor="#666666"
     borderopacity="1.0"
     inkscape:pageshadow="2"
     inkscape:pageopacity="0.0"
     inkscape:pagecheckerboard="0"
     showgrid="false"
     inkscape:zoom="0.6975945"
     inkscape:cx="929.62315"
     inkscape:cy="582.71675"
     inkscape:window-width="1920"
     inkscape:window-height="1001"
     inkscape:window-x="-9"
     inkscape:window-y="-9"
     inkscape:window-maximized="1"
     inkscape:current-layer="g8" /><g
     id="g8"
     inkscape:groupmode="layer"
     inkscape:label="Logo_OEB_simplifie_vectoriel"
     transform="matrix(1.3333333,0,0,-1.3333333,0,1164)"><g
       id="g10"
       style="fill:#ffffff;fill-opacity:1"><g
         id="g12"
         clip-path="url(#clipPath16)"
         style="fill:#ffffff;fill-opacity:1"><g
           id="g18"
           transform="translate(1152.5645,651.8955)"
           style="fill:#ffffff;fill-opacity:1"><path
             d="m 0,0 c -62.945,142.22 -339.329,136.599 -643.419,-0.979 -303.919,-137.602 -508.396,-361.348 -445.442,-503.389 24.305,-54.887 80.587,-87.545 157.726,-99.242 -68.268,13.723 -117.463,45.819 -138.97,96.13 -57.442,134.506 132.933,353.186 423.129,480.146 250.874,109.632 545.815,120.81 602.839,-12.538 41.168,-96.2 -45.058,-234.926 -203.245,-352.616 C -59.361,-263.631 47.81,-108.24 0,0"
             style="fill:#ffffff;fill-opacity:1;fill-rule:nonzero;stroke:none"
             id="path20" /></g><g
           id="g22"
           transform="translate(1284.0127,706.5581)"
           style="fill:#ffffff;fill-opacity:1"><path
             d="M 0,0 C 68.177,-154.193 -118.65,-387.12 -416.032,-559.792 -147.796,-386.325 20.493,-143.793 -42.615,3.667 -71.708,71.825 -144.374,113.021 -240.811,130.479 -122.125,124.861 -36.515,82.297 0,0"
             style="fill:#ffffff;fill-opacity:1;fill-rule:nonzero;stroke:none"
             id="path24" /></g><g
           id="g26"
           transform="translate(748.0635,157.4307)"
           style="fill:#ffffff;fill-opacity:1"><path
             d="m 0,0 -76.505,8.908 -12.046,14.244 38.513,9.18 -1.71,4.546 -8.942,5.719 h -16.792 l -7.441,-5.106 -9.984,5.106 -1.566,-14.373 -26.403,5.158 -5.757,-9.613 -4.788,17.198 -27.409,22.921 -38.406,25.884 -31.707,11.516 -15.75,-0.941 -19.553,19.766 -6.77,10.684 -3.25,-3.043 v -7.111 l -8.871,-3.08 -20.039,3.675 -9.007,-13.269 h -34.224 l 3.114,8.615 c 0,0 -7.93,36.587 -21.616,46.126 l -12.6,0.6 -31.608,14.139 12.12,5.122 54.816,5.704 17.326,-6.172 2.163,19.188 -24.168,19.425 -9.006,0.94 -16.863,-11.096 v 10.534 l 3.141,8.62 -8.971,2.134 1.05,5.104 h 9.495 l 0.525,11.098 12.501,-8.668 12.807,-0.473 11.523,-2.553 3.775,5.668 -2.127,7.039 -3.177,-3.49 -13.17,3.49 2.064,14.141 -15.225,-0.976 -10.021,-5.071 -6.842,-2.462 -14.212,2.462 -5.277,-5.088 -10.609,-0.45 -0.95,11.097 -1.113,12.219 5.313,14.249 v 10.227 l 12.636,14.174 21.054,5.105 27.337,11.071 22.248,9.142 7.369,-12.148 11.585,3.974 7.305,5.168 24.232,0.462 9.984,7.712 14.283,-14.7 13.234,-1.711 3.665,12.329 28.422,-9.638 14.275,-3.596 0.389,11.561 5.377,13.856 12.121,12.048 22.168,-0.979 18.962,6.672 12.111,-7.159 21.544,10.193 2.688,-16.304 24.729,-18.336 3.729,-14.138 16.238,-29.4 11.732,-14.764 8.381,-10.609 27.97,21.814 17.922,12.674 16.818,7.538 9.432,-3.456 -7.82,-8.102 3.657,-3.069 6.879,2.616 7.367,-7.711 4.183,-5.559 8.364,5.069 3.276,9.178 19.968,0.426 12.636,9.741 10.066,3.03 8.942,1.93 1.594,-7.549 -6.282,-10.647 10.047,-9.188 33.563,-0.524 86.1,-27.59 3.477,-82.007 C 185.939,94.518 0,0 0,0"
             style="fill:#ffffff;fill-opacity:1;fill-rule:nonzero;stroke:none"
             id="path28" /></g></g></g></g></svg>
