<?xml version="1.0" encoding="UTF-8" standalone="no"?>
<svg
   width="25.766"
   height="25.994"
   version="1.1"
   id="svg12"
   sodipodi:docname="loupe.svg"
   inkscape:version="1.1 (c68e22c387, 2021-05-23)"
   xmlns:inkscape="http://www.inkscape.org/namespaces/inkscape"
   xmlns:sodipodi="http://sodipodi.sourceforge.net/DTD/sodipodi-0.dtd"
   xmlns="http://www.w3.org/2000/svg"
   xmlns:svg="http://www.w3.org/2000/svg">
  <defs
     id="defs16" />
  <sodipodi:namedview
     id="namedview14"
     pagecolor="#ffffff"
     bordercolor="#666666"
     borderopacity="1.0"
     inkscape:pageshadow="2"
     inkscape:pageopacity="0.0"
     inkscape:pagecheckerboard="0"
     showgrid="false"
     inkscape:zoom="22.088587"
     inkscape:cx="0.24899737"
     inkscape:cy="10.887976"
     inkscape:window-width="1920"
     inkscape:window-height="1001"
     inkscape:window-x="-9"
     inkscape:window-y="-9"
     inkscape:window-maximized="1"
     inkscape:current-layer="g10" />
  <g
     stroke="#000"
     stroke-width="3"
     fill="none"
     id="g10">
    <g
       id="g6">
      <circle
         cx="11.5"
         cy="11.5"
         r="11.5"
         stroke="none"
         id="circle2" />
      <circle
         cx="11.5"
         cy="11.5"
         id="circle4"
         r="10" />
      <path
         style="fill:#008b9b;stroke-width:0.0960369;fill-opacity:1;stroke:#008b9b;stroke-opacity:1"
         d="m 23.260296,25.303093 c -0.095,-0.02555 -0.240879,-0.08354 -0.324187,-0.128886 -0.08656,-0.04711 -1.13062,-0.981184 -2.436285,-2.179631 -1.25665,-1.153455 -2.301716,-2.104012 -2.322371,-2.11235 -0.02066,-0.0083 -0.164711,0.07001 -0.320123,0.17411 C 14.79267,23.10908 10.860357,23.550599 7.4184688,22.228408 5.8683496,21.632934 4.572687,20.790162 3.3916868,19.609161 1.5308228,17.748297 0.43064902,15.485166 0.09173103,12.820932 0.02125413,12.266913 0.01099235,10.857146 0.0735555,10.323971 0.3058107,8.3446497 0.92681583,6.6517393 2.0079347,5.0506962 3.7264822,2.5056768 6.4474694,0.73904023 9.4886655,0.19373351 10.367186,0.03620899 11.704189,-0.02085795 12.548827,0.06311748 c 4.013992,0.39907808 7.452413,2.76014622 9.231982,6.33934542 0.577889,1.1622919 0.918623,2.2788283 1.114759,3.6529051 0.08102,0.56761 0.08083,2.33862 -3.21e-4,2.893613 -0.32067,2.193361 -1.094246,4.028513 -2.387161,5.663052 l -0.174777,0.220958 0.189324,0.168712 c 1.177136,1.048985 4.245684,3.907147 4.340586,4.042986 0.46653,0.667778 0.28152,1.616551 -0.401282,2.057867 -0.363208,0.234753 -0.802067,0.307992 -1.201652,0.200537 z M 12.452987,19.959546 C 15.479433,19.60921 18.067372,17.712855 19.288344,14.950825 20.303749,12.653817 20.251517,10.0171 19.145957,7.7629863 18.687694,6.8286387 18.170551,6.1164358 17.424457,5.3921597 16.728188,4.7162517 16.123874,4.2917354 15.237862,3.8561288 14.017786,3.2562805 12.887059,2.9972146 11.492421,2.9979941 10.766992,2.9983997 10.37556,3.0367866 9.7180565,3.1720023 7.9734244,3.5307867 6.2710425,4.5296503 5.0972242,5.8832507 3.7109094,7.4818938 2.9931514,9.3953384 2.9931514,11.492421 c 0,2.278218 0.8426669,4.347833 2.428775,5.965146 1.4415788,1.469941 3.254572,2.326953 5.3502176,2.529077 0.328289,0.03166 1.309933,0.01584 1.680843,-0.0271 z"
         id="path114" />
    </g>
    <path
       stroke-linecap="round"
       d="M18.647 19.289l5 4.586"
       id="path8"
       style="fill:#008b9b;fill-opacity:1;stroke:#008b9b;stroke-opacity:1" />
  </g>
</svg>
